<svg xmlns="http://www.w3.org/2000/svg" width="32" height="32" viewBox="0 0 32 32">
  <defs>
    <linearGradient id="vite-gradient" x1="6" y1="26" x2="26" y2="6" gradientUnits="userSpaceOnUse">
      <stop offset="0" stop-color="#41D1FF"/>
      <stop offset="1" stop-color="#BD34FE"/>
    </linearGradient>
  </defs>
  <path fill="url(#vite-gradient)" d="M29.884 6.146L16.536 29.742a1 1 0 0 1-1.768 0L1.42 6.146a1 1 0 0 1 .9-1.44l12.467 1.95a1 1 0 0 0 .312 0l12.467-1.95a1 1 0 0 1 .9 1.44Z"/>
  <path fill="#fff" d="M16.828 11.363l-4.542 7.235a.5.5 0 0 0 .425.757h9.067a.5.5 0 0 0 .425-.757l-4.542-7.235a.5.5 0 0 0-.85 0Z"/>
</svg>
