<svg viewBox="0 0 1400 900" xmlns="http://www.w3.org/2000/svg">
  <defs>
    <pattern id="grid3" width="40" height="40" patternUnits="userSpaceOnUse">
      <path d="M 40 0 L 0 0 0 40" fill="none" stroke="#2d2d44" stroke-width="0.5"/>
    </pattern>
    <marker id="arrowhead" markerWidth="10" markerHeight="7" refX="9" refY="3.5" orient="auto">
      <polygon points="0 0, 10 3.5, 0 7" fill="#00d9ff"/>
    </marker>
  </defs>
  
  <!-- Background -->
  <rect width="1400" height="900" fill="#1a1a2e"/>
  <rect x="80" y="50" width="1300" height="830" fill="url(#grid3)"/>
  
  <!-- Title -->
  <text x="700" y="30" font-family="Arial, sans-serif" font-size="16" font-weight="bold" fill="#fff" text-anchor="middle">WIREFRAME 3: Impact Cascade - Value Tree Visualization</text>
  
  <!-- Sidebar Mini -->
  <rect x="20" y="50" width="50" height="830" rx="6" fill="#0d0d1a"/>
  <rect x="27" y="65" width="36" height="36" rx="6" fill="#00d9ff"/>
  <text x="45" y="88" font-family="Arial, sans-serif" font-size="14" font-weight="bold" fill="#1a1a2e" text-anchor="middle">V</text>
  
  <rect x="27" y="115" width="36" height="36" rx="6" fill="transparent"/>
  <text x="45" y="138" font-family="Arial, sans-serif" font-size="12" fill="#666" text-anchor="middle">⌂</text>
  
  <rect x="27" y="160" width="36" height="36" rx="6" fill="#00d9ff"/>
  <text x="45" y="183" font-family="Arial, sans-serif" font-size="12" fill="#1a1a2e" text-anchor="middle">⚡</text>
  
  <!-- Top Bar -->
  <rect x="80" y="50" width="1300" height="50" rx="0" fill="#0d0d1a"/>
  <text x="100" y="80" font-family="Arial, sans-serif" font-size="11" fill="#888">Impact Cascade</text>
  <text x="185" y="80" font-family="Arial, sans-serif" font-size="11" fill="#666">/</text>
  <text x="200" y="80" font-family="Arial, sans-serif" font-size="11" fill="white" font-weight="bold">Acme Corp - Net Value Analysis</text>
  
  <!-- View Toggle -->
  <rect x="900" y="62" width="120" height="28" rx="14" fill="#2d2d44"/>
  <rect x="902" y="64" width="58" height="24" rx="12" fill="#00d9ff"/>
  <text x="931" y="80" font-family="Arial, sans-serif" font-size="9" fill="#1a1a2e" text-anchor="middle">Tree</text>
  <text x="990" y="80" font-family="Arial, sans-serif" font-size="9" fill="#888" text-anchor="middle">Table</text>
  
  <!-- Status Pills -->
  <circle cx="1050" cy="75" r="5" fill="#00ff88"/>
  <text x="1062" y="79" font-family="Arial, sans-serif" font-size="9" fill="#888">Live</text>
  
  <!-- Action Buttons -->
  <rect x="1120" y="60" width="80" height="30" rx="6" fill="#2d2d44" stroke="#444" stroke-width="1"/>
  <text x="1160" y="79" font-family="Arial, sans-serif" font-size="10" fill="#aaa" text-anchor="middle">Filters</text>
  
  <rect x="1210" y="60" width="80" height="30" rx="6" fill="#2d2d44" stroke="#444" stroke-width="1"/>
  <text x="1250" y="79" font-family="Arial, sans-serif" font-size="10" fill="#aaa" text-anchor="middle">Export</text>
  
  <rect x="1300" y="60" width="60" height="30" rx="6" fill="#845ef7"/>
  <text x="1330" y="79" font-family="Arial, sans-serif" font-size="10" fill="white" text-anchor="middle">Share</text>
  
  <!-- Canvas Area -->
  <rect x="80" y="100" width="1040" height="780" fill="transparent"/>
  
  <!-- OUTCOME NODE (Top) -->
  <rect x="480" y="130" width="220" height="90" rx="12" fill="#2d2d44" stroke="#00d9ff" stroke-width="2"/>
  <rect x="480" y="130" width="220" height="30" rx="12" fill="#00d9ff20"/>
  <text x="495" y="150" font-family="Arial, sans-serif" font-size="9" fill="#00d9ff" font-weight="bold">OUTCOME</text>
  <text x="590" y="185" font-family="Arial, sans-serif" font-size="28" font-weight="bold" fill="white" text-anchor="middle">$12.5M</text>
  <text x="590" y="205" font-family="Arial, sans-serif" font-size="10" fill="#888" text-anchor="middle">Net Profit Increase</text>
  
  <!-- Connector Lines from Outcome -->
  <line x1="540" y1="220" x2="340" y2="290" stroke="#00d9ff" stroke-width="2" marker-end="url(#arrowhead)"/>
  <line x1="640" y1="220" x2="840" y2="290" stroke="#00d9ff" stroke-width="2" marker-end="url(#arrowhead)"/>
  
  <!-- DRIVER NODE 1 - Revenue Growth -->
  <rect x="220" y="300" width="200" height="80" rx="10" fill="#2d2d44" stroke="#845ef7" stroke-width="2"/>
  <rect x="220" y="300" width="200" height="24" rx="10" fill="#845ef720"/>
  <text x="235" y="316" font-family="Arial, sans-serif" font-size="8" fill="#845ef7" font-weight="bold">DRIVER</text>
  <text x="320" y="355" font-family="Arial, sans-serif" font-size="22" font-weight="bold" fill="white" text-anchor="middle">$8.2M</text>
  <text x="320" y="372" font-family="Arial, sans-serif" font-size="9" fill="#888" text-anchor="middle">Revenue Growth</text>
  <text x="405" y="316" font-family="Arial, sans-serif" font-size="9" fill="#20c997">↑ 12%</text>
  
  <!-- DRIVER NODE 2 - Cost Reduction -->
  <rect x="760" y="300" width="200" height="80" rx="10" fill="#2d2d44" stroke="#20c997" stroke-width="2"/>
  <rect x="760" y="300" width="200" height="24" rx="10" fill="#20c99720"/>
  <text x="775" y="316" font-family="Arial, sans-serif" font-size="8" fill="#20c997" font-weight="bold">DRIVER</text>
  <text x="860" y="355" font-family="Arial, sans-serif" font-size="22" font-weight="bold" fill="white" text-anchor="middle">$4.3M</text>
  <text x="860" y="372" font-family="Arial, sans-serif" font-size="9" fill="#888" text-anchor="middle">Cost Reduction</text>
  <text x="945" y="316" font-family="Arial, sans-serif" font-size="9" fill="#20c997">↑ 8%</text>
  
  <!-- Connector Lines from Drivers -->
  <line x1="270" y1="380" x2="180" y2="450" stroke="#845ef7" stroke-width="1.5"/>
  <line x1="370" y1="380" x2="400" y2="450" stroke="#845ef7" stroke-width="1.5"/>
  
  <line x1="810" y1="380" x2="720" y2="450" stroke="#20c997" stroke-width="1.5"/>
  <line x1="910" y1="380" x2="1000" y2="450" stroke="#20c997" stroke-width="1.5"/>
  
  <!-- SUB-DRIVER NODES -->
  <!-- New Customer Acquisition -->
  <rect x="100" y="460" width="170" height="70" rx="8" fill="#2d2d44" stroke="#3d3d5c" stroke-width="1"/>
  <text x="115" y="482" font-family="Arial, sans-serif" font-size="8" fill="#888">SUB-DRIVER</text>
  <text x="185" y="508" font-family="Arial, sans-serif" font-size="16" font-weight="bold" fill="white" text-anchor="middle">$5.1M</text>
  <text x="185" y="522" font-family="Arial, sans-serif" font-size="8" fill="#888" text-anchor="middle">New Cust. Acquisition</text>
  
  <!-- Expansion Revenue -->
  <rect x="320" y="460" width="170" height="70" rx="8" fill="#2d2d44" stroke="#3d3d5c" stroke-width="1"/>
  <text x="335" y="482" font-family="Arial, sans-serif" font-size="8" fill="#888">SUB-DRIVER</text>
  <text x="405" y="508" font-family="Arial, sans-serif" font-size="16" font-weight="bold" fill="white" text-anchor="middle">$3.1M</text>
  <text x="405" y="522" font-family="Arial, sans-serif" font-size="8" fill="#888" text-anchor="middle">Expansion Revenue</text>
  
  <!-- OpEx Efficiency -->
  <rect x="640" y="460" width="170" height="70" rx="8" fill="#2d2d44" stroke="#3d3d5c" stroke-width="1"/>
  <text x="655" y="482" font-family="Arial, sans-serif" font-size="8" fill="#888">SUB-DRIVER</text>
  <text x="725" y="508" font-family="Arial, sans-serif" font-size="16" font-weight="bold" fill="white" text-anchor="middle">$2.8M</text>
  <text x="725" y="522" font-family="Arial, sans-serif" font-size="8" fill="#888" text-anchor="middle">OpEx Efficiency</text>
  <rect x="780" y="468" width="20" height="14" rx="4" fill="#00d9ff30"/>
  <text x="790" y="478" font-family="Arial, sans-serif" font-size="7" fill="#00d9ff" text-anchor="middle">AI</text>
  
  <!-- Risk Mitigation -->
  <rect x="920" y="460" width="170" height="70" rx="8" fill="#2d2d44" stroke="#3d3d5c" stroke-width="1"/>
  <text x="935" y="482" font-family="Arial, sans-serif" font-size="8" fill="#888">SUB-DRIVER</text>
  <text x="1005" y="508" font-family="Arial, sans-serif" font-size="16" font-weight="bold" fill="white" text-anchor="middle">$1.5M</text>
  <text x="1005" y="522" font-family="Arial, sans-serif" font-size="8" fill="#888" text-anchor="middle">Risk Mitigation</text>
  
  <!-- INITIATIVE NODES (Lowest Level) -->
  <line x1="185" y1="530" x2="185" y2="580" stroke="#3d3d5c" stroke-width="1"/>
  <rect x="110" y="585" width="150" height="50" rx="6" fill="#1a1a2e" stroke="#3d3d5c" stroke-width="1"/>
  <text x="125" y="605" font-family="Arial, sans-serif" font-size="7" fill="#666">INITIATIVE</text>
  <text x="185" y="625" font-family="Arial, sans-serif" font-size="9" fill="#aaa" text-anchor="middle">Marketing Automation</text>
  
  <line x1="405" y1="530" x2="405" y2="580" stroke="#3d3d5c" stroke-width="1"/>
  <rect x="330" y="585" width="150" height="50" rx="6" fill="#1a1a2e" stroke="#3d3d5c" stroke-width="1"/>
  <text x="345" y="605" font-family="Arial, sans-serif" font-size="7" fill="#666">INITIATIVE</text>
  <text x="405" y="625" font-family="Arial, sans-serif" font-size="9" fill="#aaa" text-anchor="middle">Upsell Program</text>
  
  <line x1="725" y1="530" x2="725" y2="580" stroke="#3d3d5c" stroke-width="1"/>
  <rect x="650" y="585" width="150" height="50" rx="6" fill="#1a1a2e" stroke="#00d9ff" stroke-width="1"/>
  <text x="665" y="605" font-family="Arial, sans-serif" font-size="7" fill="#00d9ff">INITIATIVE ★</text>
  <text x="725" y="625" font-family="Arial, sans-serif" font-size="9" fill="#00d9ff" text-anchor="middle">Process Automation</text>
  
  <line x1="1005" y1="530" x2="1005" y2="580" stroke="#3d3d5c" stroke-width="1"/>
  <rect x="930" y="585" width="150" height="50" rx="6" fill="#1a1a2e" stroke="#3d3d5c" stroke-width="1"/>
  <text x="945" y="605" font-family="Arial, sans-serif" font-size="7" fill="#666">INITIATIVE</text>
  <text x="1005" y="625" font-family="Arial, sans-serif" font-size="9" fill="#aaa" text-anchor="middle">Compliance System</text>
  
  <!-- Right Panel - Details -->
  <rect x="1130" y="100" width="250" height="780" rx="8" fill="#0d0d1a" stroke="#2d2d44" stroke-width="1"/>
  
  <text x="1150" y="130" font-family="Arial, sans-serif" font-size="11" fill="white" font-weight="bold">Node Details</text>
  
  <!-- Selected Node Info -->
  <rect x="1145" y="145" width="220" height="100" rx="6" fill="#2d2d44"/>
  <text x="1160" y="168" font-family="Arial, sans-serif" font-size="9" fill="#00d9ff">SELECTED: OUTCOME</text>
  <text x="1255" y="205" font-family="Arial, sans-serif" font-size="24" font-weight="bold" fill="white" text-anchor="middle">$12.5M</text>
  <text x="1255" y="225" font-family="Arial, sans-serif" font-size="10" fill="#888" text-anchor="middle">Net Profit Increase</text>
  
  <!-- Breakdown -->
  <text x="1150" y="270" font-family="Arial, sans-serif" font-size="10" fill="#888" font-weight="bold">BREAKDOWN</text>
  
  <rect x="1145" y="285" width="220" height="40" rx="4" fill="#2d2d44"/>
  <text x="1160" y="305" font-family="Arial, sans-serif" font-size="9" fill="#845ef7">Revenue Growth</text>
  <text x="1350" y="305" font-family="Arial, sans-serif" font-size="10" fill="white" text-anchor="end">$8.2M</text>
  <rect x="1160" y="312" width="120" height="4" rx="2" fill="#3d3d5c"/>
  <rect x="1160" y="312" width="80" height="4" rx="2" fill="#845ef7"/>
  
  <rect x="1145" y="335" width="220" height="40" rx="4" fill="#2d2d44"/>
  <text x="1160" y="355" font-family="Arial, sans-serif" font-size="9" fill="#20c997">Cost Reduction</text>
  <text x="1350" y="355" font-family="Arial, sans-serif" font-size="10" fill="white" text-anchor="end">$4.3M</text>
  <rect x="1160" y="362" width="120" height="4" rx="2" fill="#3d3d5c"/>
  <rect x="1160" y="362" width="52" height="4" rx="2" fill="#20c997"/>
  
  <!-- Confidence -->
  <text x="1150" y="405" font-family="Arial, sans-serif" font-size="10" fill="#888" font-weight="bold">CONFIDENCE SCORE</text>
  <rect x="1145" y="415" width="220" height="50" rx="6" fill="#2d2d44"/>
  <text x="1255" y="448" font-family="Arial, sans-serif" font-size="20" font-weight="bold" fill="#20c997" text-anchor="middle">92%</text>
  
  <!-- Actions -->
  <text x="1150" y="495" font-family="Arial, sans-serif" font-size="10" fill="#888" font-weight="bold">ACTIONS</text>
  
  <rect x="1145" y="510" width="220" height="36" rx="6" fill="#2d2d44" stroke="#444" stroke-width="1"/>
  <text x="1255" y="533" font-family="Arial, sans-serif" font-size="10" fill="#aaa" text-anchor="middle">✎ Edit Assumptions</text>
  
  <rect x="1145" y="555" width="220" height="36" rx="6" fill="#2d2d44" stroke="#444" stroke-width="1"/>
  <text x="1255" y="578" font-family="Arial, sans-serif" font-size="10" fill="#aaa" text-anchor="middle">📊 View History</text>
  
  <rect x="1145" y="600" width="220" height="36" rx="6" fill="#2d2d44" stroke="#444" stroke-width="1"/>
  <text x="1255" y="623" font-family="Arial, sans-serif" font-size="10" fill="#aaa" text-anchor="middle">🔗 Add Sub-Driver</text>
  
  <rect x="1145" y="645" width="220" height="36" rx="6" fill="#845ef7"/>
  <text x="1255" y="668" font-family="Arial, sans-serif" font-size="10" fill="white" text-anchor="middle">⚡ Run AI Analysis</text>
  
  <!-- Zoom Controls -->
  <rect x="100" y="830" width="140" height="40" rx="20" fill="#2d2d44"/>
  <text x="125" y="855" font-family="Arial, sans-serif" font-size="14" fill="#888">−</text>
  <text x="170" y="855" font-family="Arial, sans-serif" font-size="10" fill="#888">100%</text>
  <text x="215" y="855" font-family="Arial, sans-serif" font-size="14" fill="#888">+</text>
  
  <!-- Mini Map -->
  <rect x="970" y="780" width="140" height="90" rx="6" fill="#0d0d1a" stroke="#2d2d44" stroke-width="1"/>
  <text x="1040" y="800" font-family="Arial, sans-serif" font-size="8" fill="#666" text-anchor="middle">MINIMAP</text>
  <rect x="1000" y="810" width="80" height="50" rx="2" fill="#2d2d44"/>
  <rect x="1015" y="820" width="50" height="30" rx="2" fill="none" stroke="#00d9ff" stroke-width="1"/>
  
  <!-- Annotations -->
  <g font-family="Arial, sans-serif" font-size="9">
    <circle cx="710" cy="175" r="12" fill="#ff6b6b"/>
    <text x="710" y="179" fill="white" text-anchor="middle" font-weight="bold">1</text>
    
    <circle cx="430" cy="340" r="12" fill="#ff6b6b"/>
    <text x="430" y="344" fill="white" text-anchor="middle" font-weight="bold">2</text>
    
    <circle cx="810" cy="505" r="12" fill="#ff6b6b"/>
    <text x="810" y="509" fill="white" text-anchor="middle" font-weight="bold">3</text>
    
    <circle cx="1255" cy="668" r="12" fill="#ff6b6b"/>
    <text x="1255" y="672" fill="white" text-anchor="middle" font-weight="bold">4</text>
  </g>
  
  <!-- Legend -->
  <rect x="80" y="878" width="1300" height="2" fill="#2d2d44"/>
  <text x="100" y="895" font-family="Arial, sans-serif" font-size="8" fill="#ff6b6b" font-weight="bold">ANNOTATIONS:</text>
  <text x="180" y="895" font-family="Arial, sans-serif" font-size="8" fill="#888">1 - Root outcome node | 2 - Primary drivers with trend indicators | 3 - AI-tagged node | 4 - Contextual AI analysis action</text>
</svg>
