<svg viewBox="0 0 1400 900" xmlns="http://www.w3.org/2000/svg">
  <defs>
    <pattern id="grid6" width="20" height="20" patternUnits="userSpaceOnUse">
      <path d="M 20 0 L 0 0 0 20" fill="none" stroke="#f5f5f5" stroke-width="0.5"/>
    </pattern>
  </defs>
  
  <!-- Background -->
  <rect width="1400" height="900" fill="#f8f9fa"/>
  <rect width="1400" height="900" fill="url(#grid6)"/>
  
  <!-- Title -->
  <text x="700" y="30" font-family="Arial, sans-serif" font-size="16" font-weight="bold" fill="#333" text-anchor="middle">WIREFRAME 6: ROI Calculator - Interactive Parameters</text>
  
  <!-- Header Bar -->
  <rect x="20" y="50" width="1360" height="60" rx="8" fill="white" stroke="#e0e0e0" stroke-width="1"/>
  <rect x="35" y="65" width="36" height="36" rx="8" fill="#845ef7"/>
  <text x="53" y="88" font-family="Arial, sans-serif" font-size="14" font-weight="bold" fill="white" text-anchor="middle">S</text>
  <text x="85" y="82" font-family="Arial, sans-serif" font-size="12" font-weight="bold" fill="#333">Supernova ROI App</text>
  <text x="85" y="95" font-family="Arial, sans-serif" font-size="8" fill="#888">Value Modeler</text>
  
  <!-- View Toggles -->
  <rect x="950" y="68" width="120" height="32" rx="16" fill="#f0f0f0"/>
  <rect x="952" y="70" width="58" height="28" rx="14" fill="#845ef7"/>
  <text x="981" y="88" font-family="Arial, sans-serif" font-size="9" fill="white" text-anchor="middle">Builder</text>
  <text x="1040" y="88" font-family="Arial, sans-serif" font-size="9" fill="#888" text-anchor="middle">Executive</text>
  
  <!-- Action Buttons -->
  <rect x="1090" y="68" width="80" height="32" rx="6" fill="white" stroke="#ddd" stroke-width="1"/>
  <text x="1130" y="88" font-family="Arial, sans-serif" font-size="10" fill="#666" text-anchor="middle">💾 Saved</text>
  
  <rect x="1180" y="68" width="80" height="32" rx="6" fill="white" stroke="#ddd" stroke-width="1"/>
  <text x="1220" y="88" font-family="Arial, sans-serif" font-size="10" fill="#666" text-anchor="middle">Export ↑</text>
  
  <rect x="1270" y="68" width="90" height="32" rx="6" fill="#339af0"/>
  <text x="1315" y="88" font-family="Arial, sans-serif" font-size="10" fill="white" text-anchor="middle">Share</text>
  
  <!-- Main Content Split -->
  <!-- Left Side: Dashboard -->
  <rect x="20" y="125" width="920" height="755" rx="8" fill="white" stroke="#e0e0e0" stroke-width="1"/>
  
  <!-- Title Area -->
  <text x="45" y="155" font-family="Arial, sans-serif" font-size="16" font-weight="bold" fill="#333">Value Modeler</text>
  <text x="45" y="172" font-family="Arial, sans-serif" font-size="10" fill="#888">Q4 Budget Proposal</text>
  
  <!-- KPI Cards Row -->
  <g>
    <rect x="45" y="190" width="200" height="90" rx="8" fill="#f8f9fa" stroke="#e0e0e0" stroke-width="1"/>
    <text x="65" y="215" font-family="Arial, sans-serif" font-size="9" fill="#888">NET BENEFIT (YR 1)</text>
    <text x="145" y="255" font-family="Arial, sans-serif" font-size="28" font-weight="bold" fill="#20c997" text-anchor="middle">$850K</text>
    <text x="65" y="272" font-family="Arial, sans-serif" font-size="8" fill="#888">Savings - Cost</text>
    
    <rect x="260" y="190" width="200" height="90" rx="8" fill="#f8f9fa" stroke="#e0e0e0" stroke-width="1"/>
    <text x="280" y="215" font-family="Arial, sans-serif" font-size="9" fill="#888">3-YEAR ROI</text>
    <text x="360" y="255" font-family="Arial, sans-serif" font-size="28" font-weight="bold" fill="#845ef7" text-anchor="middle">3127%</text>
    <text x="280" y="272" font-family="Arial, sans-serif" font-size="8" fill="#888">Cumulative</text>
    
    <rect x="475" y="190" width="200" height="90" rx="8" fill="#f8f9fa" stroke="#e0e0e0" stroke-width="1"/>
    <text x="495" y="215" font-family="Arial, sans-serif" font-size="9" fill="#888">PAYBACK PERIOD</text>
    <text x="575" y="255" font-family="Arial, sans-serif" font-size="28" font-weight="bold" fill="#339af0" text-anchor="middle">0.4 mo</text>
    <text x="495" y="272" font-family="Arial, sans-serif" font-size="8" fill="#888">Time to value</text>
    
    <rect x="690" y="190" width="200" height="90" rx="8" fill="#f8f9fa" stroke="#e0e0e0" stroke-width="1"/>
    <text x="710" y="215" font-family="Arial, sans-serif" font-size="9" fill="#888">TOTAL SAVED (3Y)</text>
    <text x="790" y="255" font-family="Arial, sans-serif" font-size="28" font-weight="bold" fill="#ff6b6b" text-anchor="middle">$2.9M</text>
    <text x="710" y="272" font-family="Arial, sans-serif" font-size="8" fill="#888">Gross Value</text>
  </g>
  
  <!-- Team Cards -->
  <g>
    <rect x="45" y="300" width="280" height="100" rx="8" fill="white" stroke="#e0e0e0" stroke-width="1"/>
    <text x="65" y="325" font-family="Arial, sans-serif" font-size="10" font-weight="bold" fill="#333">🎨 DESIGN TEAM</text>
    <text x="310" y="325" font-family="Arial, sans-serif" font-size="10" fill="#888">⋮</text>
    <text x="65" y="360" font-family="Arial, sans-serif" font-size="20" font-weight="bold" fill="#333">5 Designers</text>
    <text x="65" y="385" font-family="Arial, sans-serif" font-size="10" fill="#888">Avg $110K</text>
    
    <rect x="340" y="300" width="280" height="100" rx="8" fill="white" stroke="#e0e0e0" stroke-width="1"/>
    <text x="360" y="325" font-family="Arial, sans-serif" font-size="10" font-weight="bold" fill="#333">⚙ ENGINEERING</text>
    <text x="605" y="325" font-family="Arial, sans-serif" font-size="10" fill="#888">⋮</text>
    <text x="360" y="360" font-family="Arial, sans-serif" font-size="20" font-weight="bold" fill="#333">20 Developers</text>
    <text x="360" y="385" font-family="Arial, sans-serif" font-size="10" fill="#888">Avg $130K</text>
    
    <rect x="635" y="300" width="280" height="100" rx="8" fill="white" stroke="#e0e0e0" stroke-width="1"/>
    <text x="655" y="325" font-family="Arial, sans-serif" font-size="10" font-weight="bold" fill="#333">📊 BASELINE</text>
    <text x="900" y="325" font-family="Arial, sans-serif" font-size="10" fill="#888">⋮</text>
    <text x="655" y="360" font-family="Arial, sans-serif" font-size="14" font-weight="bold" fill="#333">Build Cost: $250K</text>
    <text x="655" y="385" font-family="Arial, sans-serif" font-size="10" fill="#888">Efficiency Target: 20%</text>
  </g>
  
  <!-- 3-Year Trajectory Chart -->
  <rect x="45" y="420" width="420" height="220" rx="8" fill="white" stroke="#e0e0e0" stroke-width="1"/>
  <text x="65" y="448" font-family="Arial, sans-serif" font-size="11" font-weight="bold" fill="#333">3-Year Trajectory</text>
  
  <!-- Chart -->
  <rect x="65" y="465" width="380" height="150" fill="#fafafa" rx="4"/>
  
  <!-- Bars -->
  <rect x="120" y="530" width="60" height="70" rx="4" fill="#845ef740"/>
  <rect x="120" y="545" width="60" height="55" rx="4" fill="#845ef7"/>
  <text x="150" y="525" font-family="Arial, sans-serif" font-size="8" fill="#888" text-anchor="middle">Y1</text>
  
  <rect x="220" y="490" width="60" height="110" rx="4" fill="#845ef740"/>
  <rect x="220" y="510" width="60" height="90" rx="4" fill="#845ef7"/>
  <text x="250" y="525" font-family="Arial, sans-serif" font-size="8" fill="#888" text-anchor="middle">Y2</text>
  
  <rect x="320" y="470" width="60" height="130" rx="4" fill="#845ef740"/>
  <rect x="320" y="485" width="60" height="115" rx="4" fill="#845ef7"/>
  <text x="350" y="525" font-family="Arial, sans-serif" font-size="8" fill="#888" text-anchor="middle">Y3</text>
  
  <!-- Trend Line -->
  <path d="M150 520 Q250 480 350 460" fill="none" stroke="#20c997" stroke-width="2"/>
  <circle cx="150" cy="520" r="4" fill="#20c997"/>
  <circle cx="250" cy="490" r="4" fill="#20c997"/>
  <circle cx="350" cy="460" r="4" fill="#20c997"/>
  
  <!-- Value Breakdown Table -->
  <rect x="480" y="420" width="435" height="220" rx="8" fill="white" stroke="#e0e0e0" stroke-width="1"/>
  <text x="500" y="448" font-family="Arial, sans-serif" font-size="11" font-weight="bold" fill="#333">Value Breakdown</text>
  
  <!-- Table -->
  <g font-family="Arial, sans-serif" font-size="10">
    <rect x="500" y="465" width="395" height="35" fill="#f8f9fa"/>
    <text x="520" y="487" fill="#888" font-weight="bold">CATEGORY</text>
    <text x="800" y="487" fill="#888" font-weight="bold" text-anchor="end">VALUE</text>
    
    <line x1="500" y1="500" x2="895" y2="500" stroke="#e0e0e0" stroke-width="1"/>
    <text x="520" y="525" fill="#333">Design Productivity</text>
    <rect x="650" y="512" width="120" height="8" rx="4" fill="#e0e0e0"/>
    <rect x="650" y="512" width="30" height="8" rx="4" fill="#20c997"/>
    <text x="880" y="525" fill="#20c997" font-weight="bold" text-anchor="end">$110K</text>
    
    <line x1="500" y1="540" x2="895" y2="540" stroke="#f0f0f0" stroke-width="1"/>
    <text x="520" y="565" fill="#333">Dev Productivity</text>
    <rect x="650" y="552" width="120" height="8" rx="4" fill="#e0e0e0"/>
    <rect x="650" y="552" width="90" height="8" rx="4" fill="#845ef7"/>
    <text x="880" y="565" fill="#845ef7" font-weight="bold" text-anchor="end">$520K</text>
    
    <line x1="500" y1="580" x2="895" y2="580" stroke="#f0f0f0" stroke-width="1"/>
    <text x="520" y="605" fill="#333">Maintenance Avoidance</text>
    <rect x="650" y="592" width="120" height="8" rx="4" fill="#e0e0e0"/>
    <rect x="650" y="592" width="60" height="8" rx="4" fill="#339af0"/>
    <text x="880" y="605" fill="#339af0" font-weight="bold" text-anchor="end">$250K</text>
  </g>
  
  <!-- Strategic Insights -->
  <rect x="45" y="660" width="870" height="100" rx="8" fill="#f0f4ff" stroke="#845ef7" stroke-width="1"/>
  <text x="75" y="688" font-family="Arial, sans-serif" font-size="10" font-weight="bold" fill="#845ef7">✨ Strategic Insights</text>
  <text x="900" y="688" font-family="Arial, sans-serif" font-size="10" fill="#888">⋮</text>
  
  <g font-family="Arial, sans-serif" font-size="10" fill="#333">
    <text x="75" y="715">• Ship products <tspan font-weight="bold" fill="#845ef7">2x faster</tspan></text>
    <text x="250" y="715">• Scale efficiently with <tspan font-weight="bold" fill="#845ef7">20%</tspan> capacity boost</text>
    <text x="520" y="715">• Reduce onboarding time by <tspan font-weight="bold" fill="#845ef7">50%</tspan></text>
  </g>
  
  <!-- Right Sidebar: Parameters -->
  <rect x="960" y="125" width="420" height="755" rx="8" fill="white" stroke="#e0e0e0" stroke-width="1"/>
  
  <text x="985" y="155" font-family="Arial, sans-serif" font-size="14" font-weight="bold" fill="#333">Scenario Parameters</text>
  
  <!-- Design Team Section -->
  <text x="985" y="190" font-family="Arial, sans-serif" font-size="10" fill="#888" font-weight="bold">🎨 DESIGN TEAM</text>
  
  <rect x="985" y="205" width="370" height="90" rx="6" fill="#f8f9fa"/>
  
  <text x="1005" y="230" font-family="Arial, sans-serif" font-size="9" fill="#666">HEADCOUNT</text>
  <rect x="1005" y="240" width="300" height="8" rx="4" fill="#e0e0e0"/>
  <rect x="1005" y="240" width="75" height="8" rx="4" fill="#845ef7"/>
  <circle cx="1080" cy="244" r="8" fill="#845ef7" stroke="white" stroke-width="2"/>
  <text x="1320" y="248" font-family="Arial, sans-serif" font-size="11" fill="#333" font-weight="bold" text-anchor="end">5</text>
  
  <text x="1005" y="275" font-family="Arial, sans-serif" font-size="9" fill="#666">AVG SALARY</text>
  <rect x="1005" y="285" width="300" height="8" rx="4" fill="#e0e0e0"/>
  <rect x="1005" y="285" width="165" height="8" rx="4" fill="#845ef7"/>
  <circle cx="1170" cy="289" r="8" fill="#845ef7" stroke="white" stroke-width="2"/>
  <text x="1320" y="293" font-family="Arial, sans-serif" font-size="11" fill="#333" font-weight="bold" text-anchor="end">$110K</text>
  
  <!-- Engineering Section -->
  <text x="985" y="325" font-family="Arial, sans-serif" font-size="10" fill="#888" font-weight="bold">⚙ ENGINEERING</text>
  
  <rect x="985" y="340" width="370" height="90" rx="6" fill="#f8f9fa"/>
  
  <text x="1005" y="365" font-family="Arial, sans-serif" font-size="9" fill="#666">HEADCOUNT</text>
  <rect x="1005" y="375" width="300" height="8" rx="4" fill="#e0e0e0"/>
  <rect x="1005" y="375" width="200" height="8" rx="4" fill="#339af0"/>
  <circle cx="1205" cy="379" r="8" fill="#339af0" stroke="white" stroke-width="2"/>
  <text x="1320" y="383" font-family="Arial, sans-serif" font-size="11" fill="#333" font-weight="bold" text-anchor="end">20</text>
  
  <text x="1005" y="410" font-family="Arial, sans-serif" font-size="9" fill="#666">AVG SALARY</text>
  <rect x="1005" y="420" width="300" height="8" rx="4" fill="#e0e0e0"/>
  <rect x="1005" y="420" width="195" height="8" rx="4" fill="#339af0"/>
  <circle cx="1200" cy="424" r="8" fill="#339af0" stroke="white" stroke-width="2"/>
  <text x="1320" y="428" font-family="Arial, sans-serif" font-size="11" fill="#333" font-weight="bold" text-anchor="end">$130K</text>
  
  <!-- Baseline Section -->
  <text x="985" y="465" font-family="Arial, sans-serif" font-size="10" fill="#888" font-weight="bold">📊 BASELINE</text>
  
  <rect x="985" y="480" width="370" height="90" rx="6" fill="#f8f9fa"/>
  
  <text x="1005" y="505" font-family="Arial, sans-serif" font-size="9" fill="#666">BUILD COST</text>
  <rect x="1005" y="515" width="300" height="8" rx="4" fill="#e0e0e0"/>
  <rect x="1005" y="515" width="150" height="8" rx="4" fill="#ff6b6b"/>
  <circle cx="1155" cy="519" r="8" fill="#ff6b6b" stroke="white" stroke-width="2"/>
  <text x="1320" y="523" font-family="Arial, sans-serif" font-size="11" fill="#333" font-weight="bold" text-anchor="end">$250K</text>
  
  <text x="1005" y="550" font-family="Arial, sans-serif" font-size="9" fill="#666">EFFICIENCY TARGET</text>
  <rect x="1005" y="560" width="300" height="8" rx="4" fill="#e0e0e0"/>
  <rect x="1005" y="560" width="60" height="8" rx="4" fill="#20c997"/>
  <circle cx="1065" cy="564" r="8" fill="#20c997" stroke="white" stroke-width="2"/>
  <text x="1320" y="568" font-family="Arial, sans-serif" font-size="11" fill="#333" font-weight="bold" text-anchor="end">20%</text>
  
  <!-- AI Analyst Section -->
  <text x="985" y="610" font-family="Arial, sans-serif" font-size="10" fill="#888" font-weight="bold">🤖 AI ANALYST</text>
  
  <rect x="985" y="625" width="370" height="140" rx="6" fill="#f0f4ff" stroke="#845ef7" stroke-width="1"/>
  <text x="1005" y="655" font-family="Arial, sans-serif" font-size="10" fill="#333">I can help you model your design system</text>
  <text x="1005" y="672" font-family="Arial, sans-serif" font-size="10" fill="#333">ROI. Try:</text>
  
  <rect x="1005" y="690" width="330" height="28" rx="6" fill="white" stroke="#ddd" stroke-width="1"/>
  <text x="1020" y="708" font-family="Arial, sans-serif" font-size="9" fill="#888">"Set engineers to 30"</text>
  
  <rect x="1005" y="725" width="330" height="28" rx="6" fill="white" stroke="#ddd" stroke-width="1"/>
  <text x="1020" y="743" font-family="Arial, sans-serif" font-size="9" fill="#888">"Increase design efficiency to 25%"</text>
  
  <!-- Chat Input -->
  <rect x="985" y="785" width="370" height="45" rx="8" fill="#f8f9fa" stroke="#e0e0e0" stroke-width="1"/>
  <text x="1010" y="812" font-family="Arial, sans-serif" font-size="10" fill="#888">Ask AI...</text>
  <circle cx="1320" cy="807" r="16" fill="#845ef7"/>
  <text x="1320" y="812" font-family="Arial, sans-serif" font-size="12" fill="white" text-anchor="middle">↑</text>
  
  <!-- Annotations -->
  <g font-family="Arial, sans-serif" font-size="9">
    <circle cx="895" cy="240" r="12" fill="#ff6b6b"/>
    <text x="895" y="244" fill="white" text-anchor="middle" font-weight="bold">1</text>
    
    <circle cx="1080" cy="244" r="16" fill="none" stroke="#ff6b6b" stroke-width="2"/>
    <circle cx="1360" cy="244" r="12" fill="#ff6b6b"/>
    <text x="1360" y="248" fill="white" text-anchor="middle" font-weight="bold">2</text>
    
    <circle cx="430" cy="530" r="12" fill="#ff6b6b"/>
    <text x="430" y="534" fill="white" text-anchor="middle" font-weight="bold">3</text>
    
    <circle cx="1170" cy="700" r="12" fill="#ff6b6b"/>
    <text x="1170" y="704" fill="white" text-anchor="middle" font-weight="bold">4</text>
  </g>
  
  <!-- Legend -->
  <text x="45" y="860" font-family="Arial, sans-serif" font-size="8" fill="#ff6b6b" font-weight="bold">ANNOTATIONS:</text>
  <text x="120" y="860" font-family="Arial, sans-serif" font-size="8" fill="#888">1 - Real-time KPI updates | 2 - Interactive slider controls | 3 - Dynamic visualization | 4 - AI-powered suggestions</text>
</svg>
