<svg viewBox="0 0 1400 900" xmlns="http://www.w3.org/2000/svg">
  <defs>
    <pattern id="grid2" width="20" height="20" patternUnits="userSpaceOnUse">
      <path d="M 20 0 L 0 0 0 20" fill="none" stroke="#f0f0f0" stroke-width="0.5"/>
    </pattern>
    <linearGradient id="heroGrad" x1="0%" y1="0%" x2="100%" y2="100%">
      <stop offset="0%" style="stop-color:#1a1a2e;stop-opacity:1" />
      <stop offset="100%" style="stop-color:#2d2d44;stop-opacity:1" />
    </linearGradient>
  </defs>
  
  <!-- Background -->
  <rect width="1400" height="900" fill="#1a1a2e"/>
  
  <!-- Title -->
  <text x="700" y="30" font-family="Arial, sans-serif" font-size="16" font-weight="bold" fill="#fff" text-anchor="middle">WIREFRAME 2: Value Canvas - Discovery Home</text>
  
  <!-- Sidebar Collapsed -->
  <rect x="20" y="50" width="60" height="830" rx="8" fill="#0d0d1a" stroke="#333" stroke-width="1"/>
  
  <!-- Logo -->
  <rect x="30" y="65" width="40" height="40" rx="8" fill="#00d9ff"/>
  <text x="50" y="90" font-family="Arial, sans-serif" font-size="16" font-weight="bold" fill="#1a1a2e" text-anchor="middle">V</text>
  
  <!-- Nav Icons -->
  <rect x="30" y="125" width="40" height="40" rx="6" fill="#00d9ff"/>
  <text x="50" y="150" font-family="Arial, sans-serif" font-size="14" fill="#1a1a2e" text-anchor="middle">⌂</text>
  
  <rect x="30" y="175" width="40" height="40" rx="6" fill="transparent"/>
  <text x="50" y="200" font-family="Arial, sans-serif" font-size="14" fill="#666" text-anchor="middle">◇</text>
  
  <rect x="30" y="225" width="40" height="40" rx="6" fill="transparent"/>
  <text x="50" y="250" font-family="Arial, sans-serif" font-size="14" fill="#666" text-anchor="middle">⚡</text>
  
  <rect x="30" y="275" width="40" height="40" rx="6" fill="transparent"/>
  <text x="50" y="300" font-family="Arial, sans-serif" font-size="14" fill="#666" text-anchor="middle">◎</text>
  
  <!-- Bottom icons -->
  <rect x="30" y="810" width="40" height="40" rx="6" fill="transparent"/>
  <text x="50" y="835" font-family="Arial, sans-serif" font-size="14" fill="#666" text-anchor="middle">⚙</text>
  
  <!-- Main Content -->
  <rect x="100" y="50" width="1280" height="830" rx="8" fill="#1a1a2e"/>
  
  <!-- Hero Section -->
  <text x="740" y="140" font-family="Arial, sans-serif" font-size="32" font-weight="bold" fill="white" text-anchor="middle">Start Building Value</text>
  <text x="740" y="170" font-family="Arial, sans-serif" font-size="14" fill="#888" text-anchor="middle">Create a new case or import data to begin your value discovery journey</text>
  
  <!-- Main Input Area -->
  <rect x="300" y="200" width="880" height="80" rx="12" fill="#2d2d44" stroke="#444" stroke-width="2"/>
  <text x="340" y="248" font-family="Arial, sans-serif" font-size="16" fill="#666">✨ Describe your value scenario or paste a URL...</text>
  <rect x="1100" y="215" width="60" height="50" rx="8" fill="#00d9ff"/>
  <text x="1130" y="245" font-family="Arial, sans-serif" font-size="14" fill="#1a1a2e" text-anchor="middle">→</text>
  
  <!-- Quick Action Pills -->
  <g>
    <rect x="300" y="295" width="140" height="32" rx="16" fill="#2d2d44" stroke="#444" stroke-width="1"/>
    <text x="370" y="315" font-family="Arial, sans-serif" font-size="10" fill="#aaa" text-anchor="middle">📎 Attach files</text>
    
    <rect x="450" y="295" width="160" height="32" rx="16" fill="#2d2d44" stroke="#444" stroke-width="1"/>
    <text x="530" y="315" font-family="Arial, sans-serif" font-size="10" fill="#aaa" text-anchor="middle">🎯 Use template</text>
    
    <rect x="620" y="295" width="180" height="32" rx="16" fill="#2d2d44" stroke="#444" stroke-width="1"/>
    <text x="710" y="315" font-family="Arial, sans-serif" font-size="10" fill="#aaa" text-anchor="middle">🤖 AI Suggestions</text>
  </g>
  
  <!-- Action Cards Grid -->
  <text x="300" y="370" font-family="Arial, sans-serif" font-size="12" fill="#666" font-weight="bold">QUICK ACTIONS</text>
  
  <!-- Card Row 1 -->
  <g>
    <!-- Card 1: Analyze Sales Call -->
    <rect x="300" y="390" width="270" height="120" rx="12" fill="#2d2d44" stroke="#3d3d5c" stroke-width="1"/>
    <circle cx="340" cy="430" r="20" fill="#845ef720"/>
    <text x="340" y="435" font-family="Arial, sans-serif" font-size="16" fill="#845ef7" text-anchor="middle">🎙</text>
    <text x="375" y="425" font-family="Arial, sans-serif" font-size="13" font-weight="bold" fill="white">Analyze Sales Call</text>
    <text x="375" y="445" font-family="Arial, sans-serif" font-size="10" fill="#888">Upload recording or paste transcript</text>
    <text x="550" y="495" font-family="Arial, sans-serif" font-size="10" fill="#666">→</text>
    
    <!-- Card 2: Import from CRM -->
    <rect x="585" y="390" width="270" height="120" rx="12" fill="#2d2d44" stroke="#3d3d5c" stroke-width="1"/>
    <circle cx="625" cy="430" r="20" fill="#339af020"/>
    <text x="625" y="435" font-family="Arial, sans-serif" font-size="16" fill="#339af0" text-anchor="middle">🔗</text>
    <text x="660" y="425" font-family="Arial, sans-serif" font-size="13" font-weight="bold" fill="white">Import from CRM</text>
    <text x="660" y="445" font-family="Arial, sans-serif" font-size="10" fill="#888">Salesforce, HubSpot, or Dynamics</text>
    <text x="835" y="495" font-family="Arial, sans-serif" font-size="10" fill="#666">→</text>
    
    <!-- Card 3: Research Company -->
    <rect x="870" y="390" width="270" height="120" rx="12" fill="#2d2d44" stroke="#3d3d5c" stroke-width="1"/>
    <circle cx="910" cy="430" r="20" fill="#20c99720"/>
    <text x="910" y="435" font-family="Arial, sans-serif" font-size="16" fill="#20c997" text-anchor="middle">🔍</text>
    <text x="945" y="425" font-family="Arial, sans-serif" font-size="13" font-weight="bold" fill="white">Research Company</text>
    <text x="945" y="445" font-family="Arial, sans-serif" font-size="10" fill="#888">Enter domain or company name</text>
    <text x="1120" y="495" font-family="Arial, sans-serif" font-size="10" fill="#666">→</text>
  </g>
  
  <!-- Card Row 2 -->
  <g>
    <!-- Card 4: Upload Documents -->
    <rect x="300" y="525" width="270" height="120" rx="12" fill="#2d2d44" stroke="#3d3d5c" stroke-width="1"/>
    <circle cx="340" cy="565" r="20" fill="#fcc41920"/>
    <text x="340" y="570" font-family="Arial, sans-serif" font-size="16" fill="#fcc419" text-anchor="middle">📄</text>
    <text x="375" y="560" font-family="Arial, sans-serif" font-size="13" font-weight="bold" fill="white">Upload Documents</text>
    <text x="375" y="580" font-family="Arial, sans-serif" font-size="10" fill="#888">PDF, Word, or text files</text>
    <text x="550" y="630" font-family="Arial, sans-serif" font-size="10" fill="#666">→</text>
    
    <!-- Card 5: Email Thread -->
    <rect x="585" y="525" width="270" height="120" rx="12" fill="#2d2d44" stroke="#3d3d5c" stroke-width="1"/>
    <circle cx="625" cy="565" r="20" fill="#ff6b6b20"/>
    <text x="625" y="570" font-family="Arial, sans-serif" font-size="16" fill="#ff6b6b" text-anchor="middle">✉</text>
    <text x="660" y="560" font-family="Arial, sans-serif" font-size="13" font-weight="bold" fill="white">Email Thread</text>
    <text x="660" y="580" font-family="Arial, sans-serif" font-size="10" fill="#888">Paste conversation to analyze</text>
    <text x="835" y="630" font-family="Arial, sans-serif" font-size="10" fill="#666">→</text>
    
    <!-- Card 6: New Blank Case -->
    <rect x="870" y="525" width="270" height="120" rx="12" fill="#2d2d44" stroke="#00d9ff" stroke-width="2" stroke-dasharray="6,3"/>
    <text x="1005" y="560" font-family="Arial, sans-serif" font-size="24" fill="#00d9ff" text-anchor="middle">+</text>
    <text x="1005" y="590" font-family="Arial, sans-serif" font-size="13" font-weight="bold" fill="#00d9ff" text-anchor="middle">New Blank Case</text>
    <text x="1005" y="610" font-family="Arial, sans-serif" font-size="10" fill="#888" text-anchor="middle">Start from scratch</text>
  </g>
  
  <!-- Recent Cases Section -->
  <text x="300" y="690" font-family="Arial, sans-serif" font-size="12" fill="#666" font-weight="bold">RECENT CASES</text>
  <text x="1100" y="690" font-family="Arial, sans-serif" font-size="10" fill="#00d9ff">View all →</text>
  
  <!-- Recent Case Cards -->
  <g>
    <rect x="300" y="705" width="200" height="140" rx="8" fill="#2d2d44"/>
    <rect x="300" y="705" width="200" height="60" rx="8" fill="#845ef730"/>
    <text x="320" y="750" font-family="Arial, sans-serif" font-size="11" font-weight="bold" fill="white">Acme Corp</text>
    <text x="320" y="785" font-family="Arial, sans-serif" font-size="10" fill="#aaa">Q4 ROI Analysis</text>
    <text x="320" y="805" font-family="Arial, sans-serif" font-size="9" fill="#666">Updated 2 hours ago</text>
    <rect x="320" y="820" width="60" height="16" rx="8" fill="#20c99730"/>
    <text x="350" y="831" font-family="Arial, sans-serif" font-size="8" fill="#20c997" text-anchor="middle">Active</text>
    
    <rect x="515" y="705" width="200" height="140" rx="8" fill="#2d2d44"/>
    <rect x="515" y="705" width="200" height="60" rx="8" fill="#339af030"/>
    <text x="535" y="750" font-family="Arial, sans-serif" font-size="11" font-weight="bold" fill="white">TechStart Inc</text>
    <text x="535" y="785" font-family="Arial, sans-serif" font-size="10" fill="#aaa">Cloud Migration</text>
    <text x="535" y="805" font-family="Arial, sans-serif" font-size="9" fill="#666">Updated yesterday</text>
    <rect x="535" y="820" width="60" height="16" rx="8" fill="#fcc41930"/>
    <text x="565" y="831" font-family="Arial, sans-serif" font-size="8" fill="#fcc419" text-anchor="middle">Draft</text>
    
    <rect x="730" y="705" width="200" height="140" rx="8" fill="#2d2d44"/>
    <rect x="730" y="705" width="200" height="60" rx="8" fill="#20c99730"/>
    <text x="750" y="750" font-family="Arial, sans-serif" font-size="11" font-weight="bold" fill="white">GlobalCo</text>
    <text x="750" y="785" font-family="Arial, sans-serif" font-size="10" fill="#aaa">Enterprise Efficiency</text>
    <text x="750" y="805" font-family="Arial, sans-serif" font-size="9" fill="#666">Updated 3 days ago</text>
    <rect x="750" y="820" width="70" height="16" rx="8" fill="#845ef730"/>
    <text x="785" y="831" font-family="Arial, sans-serif" font-size="8" fill="#845ef7" text-anchor="middle">Validated</text>
    
    <rect x="945" y="705" width="200" height="140" rx="8" fill="#2d2d44"/>
    <rect x="945" y="705" width="200" height="60" rx="8" fill="#ff6b6b30"/>
    <text x="965" y="750" font-family="Arial, sans-serif" font-size="11" font-weight="bold" fill="white">FinServ Ltd</text>
    <text x="965" y="785" font-family="Arial, sans-serif" font-size="10" fill="#aaa">Compliance ROI</text>
    <text x="965" y="805" font-family="Arial, sans-serif" font-size="9" fill="#666">Updated last week</text>
    <rect x="965" y="820" width="60" height="16" rx="8" fill="#20c99730"/>
    <text x="995" y="831" font-family="Arial, sans-serif" font-size="8" fill="#20c997" text-anchor="middle">Won</text>
  </g>
  
  <!-- Drag & Drop Hint -->
  <text x="740" y="870" font-family="Arial, sans-serif" font-size="10" fill="#555" text-anchor="middle">📎 Drag & drop files anywhere to upload</text>
  
  <!-- Annotations -->
  <g font-family="Arial, sans-serif" font-size="9">
    <circle cx="1200" cy="240" r="12" fill="#ff6b6b"/>
    <text x="1200" y="244" fill="white" text-anchor="middle" font-weight="bold">1</text>
    <line x1="1165" y1="240" x2="1188" y2="240" stroke="#ff6b6b" stroke-width="2"/>
    
    <circle cx="560" cy="450" r="12" fill="#ff6b6b"/>
    <text x="560" y="454" fill="white" text-anchor="middle" font-weight="bold">2</text>
    
    <circle cx="400" cy="775" r="12" fill="#ff6b6b"/>
    <text x="400" y="779" fill="white" text-anchor="middle" font-weight="bold">3</text>
  </g>
  
  <!-- Legend -->
  <rect x="100" y="860" width="1280" height="20" fill="#0d0d1a"/>
  <text x="120" y="873" font-family="Arial, sans-serif" font-size="8" fill="#ff6b6b" font-weight="bold">ANNOTATIONS:</text>
  <text x="200" y="873" font-family="Arial, sans-serif" font-size="8" fill="#888">1 - AI-powered prompt input with send | 2 - Quick action cards with contextual icons | 3 - Recent cases with status badges</text>
</svg>
