<svg viewBox="0 0 1400 900" xmlns="http://www.w3.org/2000/svg">
  <defs>
    <pattern id="grid" width="20" height="20" patternUnits="userSpaceOnUse">
      <path d="M 20 0 L 0 0 0 20" fill="none" stroke="#f0f0f0" stroke-width="0.5"/>
    </pattern>
  </defs>
  
  <!-- Background -->
  <rect width="1400" height="900" fill="#fafafa"/>
  <rect width="1400" height="900" fill="url(#grid)"/>
  
  <!-- Title -->
  <text x="700" y="30" font-family="Arial, sans-serif" font-size="16" font-weight="bold" fill="#333" text-anchor="middle">WIREFRAME 1: Global Shell Architecture</text>
  
  <!-- Left Sidebar - Collapsed State -->
  <rect x="20" y="50" width="60" height="830" rx="8" fill="#1a1a2e" stroke="#333" stroke-width="2"/>
  <text x="50" y="75" font-family="Arial, sans-serif" font-size="8" fill="#888" text-anchor="middle">COLLAPSED</text>
  
  <!-- Logo Area -->
  <rect x="30" y="90" width="40" height="40" rx="8" fill="#00d9ff" stroke="none"/>
  <text x="50" y="115" font-family="Arial, sans-serif" font-size="14" font-weight="bold" fill="#1a1a2e" text-anchor="middle">V</text>
  
  <!-- Nav Icons -->
  <g fill="#666">
    <rect x="35" y="150" width="30" height="30" rx="4" fill="#2d2d44"/>
    <text x="50" y="170" font-family="Arial, sans-serif" font-size="10" fill="#00d9ff" text-anchor="middle">⌂</text>
    <text x="50" y="195" font-family="Arial, sans-serif" font-size="7" fill="#888" text-anchor="middle">Home</text>
    
    <rect x="35" y="210" width="30" height="30" rx="4" fill="#00d9ff"/>
    <text x="50" y="230" font-family="Arial, sans-serif" font-size="10" fill="#1a1a2e" text-anchor="middle">◇</text>
    <text x="50" y="255" font-family="Arial, sans-serif" font-size="7" fill="#00d9ff" text-anchor="middle">Value</text>
    
    <rect x="35" y="270" width="30" height="30" rx="4" fill="#2d2d44"/>
    <text x="50" y="290" font-family="Arial, sans-serif" font-size="10" fill="#888" text-anchor="middle">⚡</text>
    <text x="50" y="315" font-family="Arial, sans-serif" font-size="7" fill="#888" text-anchor="middle">Cascade</text>
    
    <rect x="35" y="330" width="30" height="30" rx="4" fill="#2d2d44"/>
    <text x="50" y="350" font-family="Arial, sans-serif" font-size="10" fill="#888" text-anchor="middle">◎</text>
    <text x="50" y="375" font-family="Arial, sans-serif" font-size="7" fill="#888" text-anchor="middle">Agents</text>
    
    <rect x="35" y="390" width="30" height="30" rx="4" fill="#2d2d44"/>
    <text x="50" y="410" font-family="Arial, sans-serif" font-size="10" fill="#888" text-anchor="middle">📊</text>
    <text x="50" y="435" font-family="Arial, sans-serif" font-size="7" fill="#888" text-anchor="middle">Reports</text>
  </g>
  
  <!-- Notification Badge -->
  <circle cx="60" y="280" r="8" fill="#ff4757"/>
  <text x="60" y="283" font-family="Arial, sans-serif" font-size="8" fill="white" text-anchor="middle">3</text>
  
  <!-- Bottom Nav Icons -->
  <g>
    <rect x="35" y="780" width="30" height="30" rx="4" fill="#2d2d44"/>
    <text x="50" y="800" font-family="Arial, sans-serif" font-size="10" fill="#888" text-anchor="middle">⚙</text>
    
    <rect x="35" y="820" width="30" height="30" rx="4" fill="#2d2d44"/>
    <text x="50" y="840" font-family="Arial, sans-serif" font-size="10" fill="#888" text-anchor="middle">?</text>
  </g>
  
  <!-- Expanded Sidebar -->
  <rect x="100" y="50" width="220" height="830" rx="8" fill="#1a1a2e" stroke="#333" stroke-width="2"/>
  <text x="210" y="75" font-family="Arial, sans-serif" font-size="8" fill="#888" text-anchor="middle">EXPANDED STATE</text>
  
  <!-- Logo Expanded -->
  <rect x="115" y="90" width="40" height="40" rx="8" fill="#00d9ff"/>
  <text x="135" y="115" font-family="Arial, sans-serif" font-size="14" font-weight="bold" fill="#1a1a2e" text-anchor="middle">V</text>
  <text x="175" y="108" font-family="Arial, sans-serif" font-size="12" font-weight="bold" fill="white">VALUE</text>
  <text x="175" y="122" font-family="Arial, sans-serif" font-size="10" fill="#666">Operating System</text>
  
  <!-- Search Bar -->
  <rect x="115" y="145" width="190" height="32" rx="6" fill="#2d2d44" stroke="#444" stroke-width="1"/>
  <text x="130" y="165" font-family="Arial, sans-serif" font-size="10" fill="#666">🔍 Search or ask...</text>
  <text x="285" y="165" font-family="Arial, sans-serif" font-size="8" fill="#555">⌘K</text>
  
  <!-- Section: Workspace -->
  <text x="115" y="200" font-family="Arial, sans-serif" font-size="9" fill="#555" font-weight="bold">WORKSPACE</text>
  
  <rect x="115" y="210" width="190" height="36" rx="4" fill="#00d9ff20" stroke="#00d9ff" stroke-width="1"/>
  <text x="135" y="232" font-family="Arial, sans-serif" font-size="11" fill="#00d9ff">◇ Value Canvas</text>
  <text x="290" y="232" font-family="Arial, sans-serif" font-size="10" fill="#00d9ff">›</text>
  
  <rect x="115" y="252" width="190" height="36" rx="4" fill="transparent"/>
  <text x="135" y="274" font-family="Arial, sans-serif" font-size="11" fill="#aaa">⚡ Impact Cascade</text>
  <circle cx="280" cy="270" r="8" fill="#ff4757"/>
  <text x="280" y="273" font-family="Arial, sans-serif" font-size="8" fill="white" text-anchor="middle">3</text>
  
  <rect x="115" y="294" width="190" height="36" rx="4" fill="transparent"/>
  <text x="135" y="316" font-family="Arial, sans-serif" font-size="11" fill="#aaa">◎ Agent Hub</text>
  <circle cx="275" cy="312" r="6" fill="#00ff88"/>
  
  <rect x="115" y="336" width="190" height="36" rx="4" fill="transparent"/>
  <text x="135" y="358" font-family="Arial, sans-serif" font-size="11" fill="#aaa">📊 Dashboards</text>
  
  <!-- Section: Lifecycle -->
  <text x="115" y="400" font-family="Arial, sans-serif" font-size="9" fill="#555" font-weight="bold">LIFECYCLE STAGES</text>
  
  <rect x="115" y="410" width="190" height="32" rx="4" fill="transparent"/>
  <circle cx="130" cy="426" r="8" fill="#845ef7"/>
  <text x="130" y="430" font-family="Arial, sans-serif" font-size="8" fill="white" text-anchor="middle">1</text>
  <text x="150" y="430" font-family="Arial, sans-serif" font-size="10" fill="#aaa">Value Definition</text>
  
  <rect x="115" y="448" width="190" height="32" rx="4" fill="transparent"/>
  <circle cx="130" cy="464" r="8" fill="#339af0"/>
  <text x="130" y="468" font-family="Arial, sans-serif" font-size="8" fill="white" text-anchor="middle">2</text>
  <text x="150" y="468" font-family="Arial, sans-serif" font-size="10" fill="#aaa">Value Validation</text>
  
  <rect x="115" y="486" width="190" height="32" rx="4" fill="#20c99720" stroke="#20c997" stroke-width="1"/>
  <circle cx="130" cy="502" r="8" fill="#20c997"/>
  <text x="130" y="506" font-family="Arial, sans-serif" font-size="8" fill="white" text-anchor="middle">3</text>
  <text x="150" y="506" font-family="Arial, sans-serif" font-size="10" fill="#20c997">Value Realization</text>
  
  <!-- Section: Recent -->
  <text x="115" y="550" font-family="Arial, sans-serif" font-size="9" fill="#555" font-weight="bold">RECENT CASES</text>
  
  <rect x="115" y="560" width="190" height="40" rx="4" fill="#2d2d44"/>
  <text x="130" y="578" font-family="Arial, sans-serif" font-size="10" fill="#ddd">Acme Corp - Q4 ROI</text>
  <text x="130" y="592" font-family="Arial, sans-serif" font-size="8" fill="#666">Updated 2h ago</text>
  
  <rect x="115" y="606" width="190" height="40" rx="4" fill="#2d2d44"/>
  <text x="130" y="624" font-family="Arial, sans-serif" font-size="10" fill="#ddd">TechStart - Migration</text>
  <text x="130" y="638" font-family="Arial, sans-serif" font-size="8" fill="#666">Updated yesterday</text>
  
  <!-- User Profile -->
  <rect x="115" y="820" width="190" height="48" rx="6" fill="#2d2d44"/>
  <circle cx="140" cy="844" r="16" fill="#845ef7"/>
  <text x="140" y="848" font-family="Arial, sans-serif" font-size="10" fill="white" text-anchor="middle">MK</text>
  <text x="165" y="838" font-family="Arial, sans-serif" font-size="10" fill="#ddd">Michael Kim</text>
  <text x="165" y="852" font-family="Arial, sans-serif" font-size="8" fill="#666">Value Strategist</text>
  <text x="290" y="844" font-family="Arial, sans-serif" font-size="12" fill="#666">⋮</text>
  
  <!-- Main Content Area -->
  <rect x="340" y="50" width="1040" height="830" rx="8" fill="white" stroke="#e0e0e0" stroke-width="1"/>
  
  <!-- Top Header Bar -->
  <rect x="340" y="50" width="1040" height="56" rx="8" fill="#fafafa" stroke="#e0e0e0" stroke-width="1"/>
  <path d="M340 98 L1380 98" stroke="#e0e0e0" stroke-width="1"/>
  
  <!-- Breadcrumb -->
  <text x="360" y="82" font-family="Arial, sans-serif" font-size="11" fill="#888">Value Canvas</text>
  <text x="440" y="82" font-family="Arial, sans-serif" font-size="11" fill="#888">/</text>
  <text x="455" y="82" font-family="Arial, sans-serif" font-size="11" fill="#333" font-weight="bold">Acme Corp - Discovery</text>
  
  <!-- Header Actions -->
  <rect x="1050" y="62" width="80" height="32" rx="6" fill="white" stroke="#ddd" stroke-width="1"/>
  <text x="1090" y="82" font-family="Arial, sans-serif" font-size="10" fill="#666" text-anchor="middle">Share</text>
  
  <rect x="1140" y="62" width="100" height="32" rx="6" fill="#00d9ff"/>
  <text x="1190" y="82" font-family="Arial, sans-serif" font-size="10" fill="#1a1a2e" text-anchor="middle">Export ▾</text>
  
  <rect x="1250" y="62" width="110" height="32" rx="6" fill="#845ef7"/>
  <text x="1305" y="82" font-family="Arial, sans-serif" font-size="10" fill="white" text-anchor="middle">Present Mode</text>
  
  <!-- Status Indicators -->
  <circle cx="1000" cy="78" r="5" fill="#00ff88"/>
  <text x="1010" y="82" font-family="Arial, sans-serif" font-size="9" fill="#666">Sync Active</text>
  
  <!-- Content Placeholder -->
  <rect x="360" y="120" width="1000" height="740" rx="4" fill="#f8f9fa" stroke="#e0e0e0" stroke-width="1" stroke-dasharray="4,4"/>
  <text x="860" y="500" font-family="Arial, sans-serif" font-size="14" fill="#999" text-anchor="middle">[ MAIN CONTENT AREA ]</text>
  <text x="860" y="520" font-family="Arial, sans-serif" font-size="11" fill="#bbb" text-anchor="middle">Dynamic content renders based on selected module</text>
  
  <!-- Annotations -->
  <g font-family="Arial, sans-serif" font-size="9" fill="#ff6b6b">
    <line x1="80" y1="110" x2="95" y2="110" stroke="#ff6b6b" stroke-width="1"/>
    <circle cx="95" cy="110" r="10" fill="#ff6b6b"/>
    <text x="95" y="113" fill="white" text-anchor="middle">1</text>
    
    <line x1="320" y1="110" x2="335" y2="110" stroke="#ff6b6b" stroke-width="1"/>
    <circle cx="335" cy="110" r="10" fill="#ff6b6b"/>
    <text x="335" y="113" fill="white" text-anchor="middle">2</text>
    
    <line x1="700" y1="78" x2="720" y2="60" stroke="#ff6b6b" stroke-width="1"/>
    <circle cx="720" cy="50" r="10" fill="#ff6b6b"/>
    <text x="720" y="53" fill="white" text-anchor="middle">3</text>
    
    <line x1="1190" y1="50" x2="1190" y2="35" stroke="#ff6b6b" stroke-width="1"/>
    <circle cx="1190" cy="25" r="10" fill="#ff6b6b"/>
    <text x="1190" y="28" fill="white" text-anchor="middle">4</text>
  </g>
  
  <!-- Legend -->
  <rect x="360" y="870" width="1000" height="20" fill="#fafafa"/>
  <text x="370" y="883" font-family="Arial, sans-serif" font-size="8" fill="#ff6b6b" font-weight="bold">ANNOTATIONS:</text>
  <text x="450" y="883" font-family="Arial, sans-serif" font-size="8" fill="#666">1 - Collapsed sidebar (icon-only) | 2 - Expanded sidebar with full navigation | 3 - Contextual breadcrumbs | 4 - Primary action buttons</text>
</svg>
